#tb 0: 71/1000
#media_type 0: video
#codec_id 0: rawvideo
#dimensions 0: 320x200
#sar 0: 0/1
0,          0,          0,        1,   192000, 0x7384f9b2
0,          1,          1,        1,   192000, 0xd1f61c71
0,          2,          2,        1,   192000, 0x0c6937d1
0,          3,          3,        1,   192000, 0x56459a3a
0,          4,          4,        1,   192000, 0x6d011790
0,          5,          5,        1,   192000, 0xb5347ce8
0,          6,          6,        1,   192000, 0xcd422568
0,          7,          7,        1,   192000, 0xde4fef2d
